<svg xmlns="http://www.w3.org/2000/svg" width="8.87" height="8.969" viewBox="0 0 8.87 8.969">
  <defs>
    <style>
      .cls-1 {
        fill: #ea3a3d;
        fill-rule: evenodd;
      }
    </style>
  </defs>
  <path id="arrow" class="cls-1" d="M1022.21,320.454a0.58,0.58,0,0,0-.83,0,0.6,0.6,0,0,0,0,.841l7.08,7.139a0.58,0.58,0,0,0,.83,0,0.6,0.6,0,0,0,0-.841Zm-0.42-.472a0.877,0.877,0,0,0-.62.261,0.89,0.89,0,0,0,0,1.262l7.08,7.14a0.879,0.879,0,0,0,1.25,0,0.908,0.908,0,0,0,0-1.262l-7.08-7.14A0.882,0.882,0,0,0,1021.79,319.982Zm7.08,8.329a0.31,0.31,0,0,1-.21-0.087l-7.07-7.139a0.291,0.291,0,0,1,0-.421,0.285,0.285,0,0,1,.41,0l7.08,7.139A0.3,0.3,0,0,1,1028.87,328.311Zm-0.59-.892h-4.72a0.6,0.6,0,0,0,0,1.19h5.31a0.59,0.59,0,0,0,.59-0.595v-5.355a0.59,0.59,0,0,0-.59-0.595,0.6,0.6,0,0,0-.59.595v4.76Zm0.59-5.652a0.89,0.89,0,0,0-.88.892v4.462h-4.43a0.893,0.893,0,0,0,0,1.785h5.31a0.892,0.892,0,0,0,.89-0.892v-5.355A0.892,0.892,0,0,0,1028.87,321.767Zm-5.31,6.544a0.3,0.3,0,0,1,0-.595h5.02v-5.057a0.3,0.3,0,1,1,.59,0v5.355a0.3,0.3,0,0,1-.3.3h-5.31Z" transform="translate(-1020.91 -319.969)"/>
</svg>
