<svg xmlns="http://www.w3.org/2000/svg" width="8.875" height="8.937" viewBox="0 0 8.875 8.937">
  <defs>
    <style>
      .cls-1 {
        fill: #1ad598;
        fill-rule: evenodd;
      }
    </style>
  </defs>
  <path id="arrow" class="cls-1" d="M662.211,327.546a0.585,0.585,0,0,1-.834,0,0.6,0.6,0,0,1,0-.841l7.079-7.139a0.585,0.585,0,0,1,.834,0,0.6,0.6,0,0,1,0,.841Zm-0.417.471a0.877,0.877,0,0,1-.625-0.261,0.9,0.9,0,0,1,0-1.261l7.079-7.14a0.88,0.88,0,0,1,1.251,0,0.9,0.9,0,0,1,0,1.262l-7.079,7.139A0.879,0.879,0,0,1,661.794,328.017Zm7.079-8.328a0.292,0.292,0,0,0-.208.087l-7.079,7.139a0.3,0.3,0,0,0,0,.421,0.293,0.293,0,0,0,.417,0l7.079-7.139a0.3,0.3,0,0,0,0-.421A0.294,0.294,0,0,0,668.873,319.689Zm-0.59.892h-4.719a0.6,0.6,0,0,1,0-1.19h5.309a0.593,0.593,0,0,1,.59.595v5.355a0.59,0.59,0,1,1-1.18,0v-4.76Zm0.59,5.652a0.889,0.889,0,0,1-.885-0.892v-4.462h-4.424a0.893,0.893,0,0,1,0-1.785h5.309a0.889,0.889,0,0,1,.885.892v5.355A0.889,0.889,0,0,1,668.873,326.233Zm-5.309-6.544a0.3,0.3,0,0,0,0,.595h5.014v5.057a0.3,0.3,0,1,0,.59,0v-5.355a0.3,0.3,0,0,0-.295-0.3h-5.309Z" transform="translate(-660.906 -319.094)"/>
</svg>
