<svg xmlns="http://www.w3.org/2000/svg" width="6.22" height="6.313" viewBox="0 0 6.22 6.313">
  <defs>
    <style>
      .cls-1 {
        fill: #f1f4f9;
        fill-rule: evenodd;
      }
    </style>
  </defs>
  <path id="arrow" class="cls-1" d="M1043.48,765.012a0.415,0.415,0,0,1-.59,0,0.43,0.43,0,0,1,0-.6l4.98-5.057a0.413,0.413,0,0,1,.59,0,0.43,0.43,0,0,1,0,.6Zm-0.29.334a0.613,0.613,0,0,1-.44-0.185,0.627,0.627,0,0,1,0-.894l4.98-5.057a0.615,0.615,0,0,1,.88,0,0.645,0.645,0,0,1,0,.894l-4.98,5.057A0.613,0.613,0,0,1,1043.19,765.346Zm4.98-5.9a0.2,0.2,0,0,0-.15.062l-4.98,5.057a0.215,0.215,0,0,0,0,.3,0.2,0.2,0,0,0,.29,0l4.98-5.057a0.2,0.2,0,0,0,0-.3A0.2,0.2,0,0,0,1048.17,759.446Zm-0.42.632h-3.32a0.422,0.422,0,0,1,0-.843h3.74a0.414,0.414,0,0,1,.41.422v3.793a0.414,0.414,0,0,1-.41.421,0.422,0.422,0,0,1-.42-0.421v-3.372Zm0.42,4a0.622,0.622,0,0,1-.62-0.632v-3.161h-3.12a0.632,0.632,0,0,1,0-1.264h3.74a0.628,0.628,0,0,1,.62.632v3.793A0.628,0.628,0,0,1,1048.17,764.082Zm-3.74-4.636a0.211,0.211,0,0,0,0,.422h3.53v3.582a0.207,0.207,0,0,0,.21.21,0.214,0.214,0,0,0,.21-0.21v-3.793a0.215,0.215,0,0,0-.21-0.211h-3.74Z" transform="translate(-1042.56 -759.031)"/>
</svg>
