<svg xmlns="http://www.w3.org/2000/svg" width="20.344" height="22.375" viewBox="0 0 20.344 22.375">
  <defs>
    <style>
      .cls-1 {
        fill: #809fb8;
        fill-rule: evenodd;
      }
    </style>
  </defs>
  <path id="Form_22" data-name="Form 22" class="cls-1" d="M459.049,362.7a1.016,1.016,0,0,0-1.016,1.016v14.231a1.016,1.016,0,0,0,1.016,1.016H473.28a1.016,1.016,0,0,0,1.016-1.016V363.72a1.016,1.016,0,0,0-1.016-1.016H459.049Zm0-2.033H473.28a3.049,3.049,0,0,1,3.049,3.049v14.231A3.049,3.049,0,0,1,473.28,381H459.049A3.049,3.049,0,0,1,456,377.951V363.72A3.049,3.049,0,0,1,459.049,360.671Zm10.165-1.017a1.017,1.017,0,0,1,2.033,0v4.066a1.017,1.017,0,1,1-2.033,0v-4.066Zm-8.132,0a1.017,1.017,0,0,1,2.033,0v4.066a1.017,1.017,0,1,1-2.033,0v-4.066Zm-4.066,9.148a1.017,1.017,0,0,1,0-2.033h18.3a1.017,1.017,0,0,1,0,2.033h-18.3Z" transform="translate(-456 -358.625)"/>
</svg>
