<svg xmlns="http://www.w3.org/2000/svg" width="21" height="22" viewBox="0 0 21 22">
  <defs>
    <style>
      .cls-1 {
        fill: #99b2c6;
        fill-rule: evenodd;
      }
    </style>
  </defs>
  <path id="icon" class="cls-1" d="M485.168,386.74a0.838,0.838,0,0,0,.841-0.835V383.16a0.841,0.841,0,0,0-1.682,0v2.745A0.838,0.838,0,0,0,485.168,386.74Zm-9.042,0a0.838,0.838,0,0,0,.841-0.835V383.16a0.841,0.841,0,0,0-1.682,0v2.745A0.838,0.838,0,0,0,476.126,386.74Zm13.9-2.375h-3.008v1.54a1.85,1.85,0,0,1-3.7,0v-1.54h-5.342v1.54a1.85,1.85,0,0,1-3.7,0v-1.54h-3.008a1.117,1.117,0,0,0-1.121,1.113v3.9h21v-3.9A1.117,1.117,0,0,0,490.026,384.365ZM470.147,403.21a1.117,1.117,0,0,0,1.121,1.113h18.758a1.117,1.117,0,0,0,1.121-1.113V390.265h-21V403.21Z" transform="translate(-470.156 -382.312)"/>
</svg>
