<svg xmlns="http://www.w3.org/2000/svg" width="27.187" height="17.688" viewBox="0 0 27.187 17.688">
  <defs>
    <style>
      .cls-1 {
        fill: #3a36db;
        fill-rule: evenodd;
      }
    </style>
  </defs>
  <path id="Form_3" data-name="Form 3" class="cls-1" d="M971.84,327.625h3.123a0.7,0.7,0,0,1,.751.634v0.264a0.7,0.7,0,0,1-.751.634H971.84a0.7,0.7,0,0,1-.751-0.634v-0.264A0.7,0.7,0,0,1,971.84,327.625Zm-6.248,0h3.123a0.7,0.7,0,0,1,.751.634v0.264a0.7,0.7,0,0,1-.751.634h-3.123a0.7,0.7,0,0,1-.751-0.634v-0.264A0.7,0.7,0,0,1,965.592,327.625Zm-6.248,0h3.123a0.7,0.7,0,0,1,.749.634v0.264a0.7,0.7,0,0,1-.749.634h-3.123a0.7,0.7,0,0,1-.751-0.634v-0.264A0.7,0.7,0,0,1,959.344,327.625Zm-6.248,0h3.123a0.7,0.7,0,0,1,.751.634v0.264a0.7,0.7,0,0,1-.751.634H953.1a0.7,0.7,0,0,1-.751-0.634v-0.264A0.7,0.7,0,0,1,953.1,327.625Zm0.83-9.794h4.107a0.837,0.837,0,0,1,.752.9v1.777a0.837,0.837,0,0,1-.752.9h-4.107a0.836,0.836,0,0,1-.752-0.9v-1.777A0.836,0.836,0,0,1,953.926,317.831Zm-1.264-2.679a2.531,2.531,0,0,0-2.231,2.757V330.08a2.531,2.531,0,0,0,2.231,2.757H975.4a2.531,2.531,0,0,0,2.231-2.757V317.909a2.531,2.531,0,0,0-2.231-2.757H952.662Z" transform="translate(-950.438 -315.156)"/>
</svg>
