<svg xmlns="http://www.w3.org/2000/svg" width="22" height="20" viewBox="0 0 22 20">
  <defs>
    <style>
      .cls-1 {
        fill: #fff;
        fill-rule: evenodd;
      }
    </style>
  </defs>
  <path id="customers" class="cls-1" d="M54,631a1,1,0,0,0-1,1v10a1,1,0,0,0,1,1H70a1,1,0,0,0,1-1V632a1,1,0,0,0-1-1H54Zm0-2H70a3,3,0,0,1,3,3v10a3,3,0,0,1-3,3H54a3,3,0,0,1-3-3V632A3,3,0,0,1,54,629Zm13,15a1,1,0,0,1-2,0V628a1,1,0,0,0-1-1H60a1,1,0,0,0-1,1v16a1,1,0,0,1-2,0V628a3,3,0,0,1,3-3h4a3,3,0,0,1,3,3v16Z" transform="translate(-51 -625)"/>
</svg>
