<svg xmlns="http://www.w3.org/2000/svg" width="26" height="26" viewBox="0 0 26 26">
  <defs>
    <style>
      .cls-1 {
        fill: #809fb8;
        fill-rule: evenodd;
      }
    </style>
  </defs>
  <path id="Form_24" data-name="Form 24" class="cls-1" d="M421,361a57.486,57.486,0,0,0-5.885.166,4.748,4.748,0,0,0-4.949,4.953A57.712,57.712,0,0,0,410,372a56.7,56.7,0,0,0,.17,5.883,4.765,4.765,0,0,0,4.961,4.951,102.6,102.6,0,0,0,11.738,0,4.763,4.763,0,0,0,4.959-4.955A56.482,56.482,0,0,0,432,372a1,1,0,1,0-2-.028V372c0,2.487-.009,4.342-0.158,5.648a2.871,2.871,0,0,1-3.2,3.2c-1.305.149-3.159,0.156-5.644,0.156s-4.339-.007-5.645-0.154a2.865,2.865,0,0,1-3.2-3.192C412.009,376.347,412,374.492,412,372s0-4.349.152-5.656a2.855,2.855,0,0,1,3.188-3.19c1.308-.147,3.165-0.154,5.66-0.154a1,1,0,0,0,.028-2H421Zm10.984-4a1,1,0,0,0-.691.293l-12,12A1,1,0,0,0,419,370v3a1,1,0,0,0,1,1h3a1,1,0,0,0,.707-0.293l12-12a1,1,0,0,0,0-1.414l-3-3a1,1,0,0,0-.723-0.293h0ZM432,359.414L433.586,361,432,362.586,430.414,361Zm-3,3L430.585,364l-8,8H421v-1.586Z" transform="translate(-410 -357)"/>
</svg>
