<svg xmlns="http://www.w3.org/2000/svg" width="21.75" height="18" viewBox="0 0 21.75 18">
  <defs>
    <style>
      .cls-1 {
        fill: #809fb8;
        fill-rule: evenodd;
      }
    </style>
  </defs>
  <path id="Email" class="cls-1" d="M1740.95,108.437a1,1,0,0,0-.99,1v12a1,1,0,0,0,.99,1h15.82a1,1,0,0,0,.99-1v-12a1,1,0,0,0-.99-1h-15.82Zm0-2h15.82a2.988,2.988,0,0,1,2.97,3v12a2.988,2.988,0,0,1-2.97,3h-15.82a2.994,2.994,0,0,1-2.97-3v-12A3,3,0,0,1,1740.95,106.437Zm7.91,8.78,9.32-6.6a0.985,0.985,0,0,1,1.38.246,1.017,1.017,0,0,1-.24,1.393l-9.89,7a0.989,0.989,0,0,1-1.14,0l-9.88-7a1.01,1.01,0,0,1-.25-1.393,0.987,0.987,0,0,1,1.38-.246Z" transform="translate(-1738 -106.438)"/>
</svg>
