<svg xmlns="http://www.w3.org/2000/svg" width="25" height="20" viewBox="0 0 25 20">
  <defs>
    <style>
      .cls-1 {
        fill: #809fb8;
        fill-rule: evenodd;
      }
    </style>
  </defs>
  <path id="invoicing" class="cls-1" d="M58,462a34.525,34.525,0,0,0-3.576.1,3.236,3.236,0,0,0-3.322,3.325A5.493,5.493,0,0,0,51,467v10a5.474,5.474,0,0,0,.1,1.576,3.236,3.236,0,0,0,3.324,3.323A34.833,34.833,0,0,0,58,482H69a34.525,34.525,0,0,0,3.576-.1,3.236,3.236,0,0,0,3.322-3.325A5.492,5.492,0,0,0,76,477V467a5.473,5.473,0,0,0-.1-1.576,3.235,3.235,0,0,0-3.324-3.322A34.5,34.5,0,0,0,69,462H58Zm0,2H69c1.5,0,2.6.006,3.35,0.09a1.343,1.343,0,0,1,1.561,1.558A3.839,3.839,0,0,1,74,467v1H70a1,1,0,0,0-.219.021,3.984,3.984,0,0,0,0,7.957A0.947,0.947,0,0,0,70,476h4v1a3.848,3.848,0,0,1-.09,1.35,1.343,1.343,0,0,1-1.559,1.56C71.606,479.994,70.5,480,69,480H58c-0.382,0-.668-0.006-1-0.008V464.007c0.332,0,.618-0.007,1-0.007h0Zm-3,.07v15.859c-0.1-.008-0.256-0.009-0.35-0.019a1.343,1.343,0,0,1-1.561-1.559A3.834,3.834,0,0,1,53,477V467a3.837,3.837,0,0,1,.09-1.35,1.343,1.343,0,0,1,1.559-1.561c0.094-.01.246-0.011,0.352-0.019h0ZM70,470h4v4H70A2,2,0,0,1,70,470Zm0,1a1,1,0,1,0,1,1A1,1,0,0,0,70,471Z" transform="translate(-51 -462)"/>
</svg>
