<svg xmlns="http://www.w3.org/2000/svg" width="20" height="25" viewBox="0 0 20 25">
  <defs>
    <style>
      .cls-1 {
        fill: #809fb8;
        fill-rule: evenodd;
      }
    </style>
  </defs>
  <path id="jobs" class="cls-1" d="M60,540c-3.267,0-4.939,2.644-4.994,5.9A1,1,0,0,0,55,546v1H51a1,1,0,0,0-1,1v8a46,46,0,0,0,.135,4.73,3.994,3.994,0,0,0,4.139,4.137A27.538,27.538,0,0,0,58,565h5a27.355,27.355,0,0,0,3.73-.135c1.222-.138,1.235-0.432,1.971-1.168a4.747,4.747,0,0,0,1.166-2.971A46.26,46.26,0,0,0,70,556v-8a1,1,0,0,0-1-1H65v-1a0.961,0.961,0,0,0-.006-0.113C64.933,542.638,63.263,540,60,540h0Zm0,2c2.219,0,3,1.781,3,4v1H57v-1C57,543.781,57.781,542,60,542Zm-8,7h3v2a1,1,0,1,0,2,.028c0-.009,0-0.019,0-0.028v-2h6v2a1,1,0,1,0,2,.028c0-.009,0-0.019,0-0.028v-2h3v7c0,1.994-.006,3.477-0.121,4.5a2.926,2.926,0,0,1-.592,1.781c-0.267.267,0.246,0.478-.781,0.594A26.328,26.328,0,0,1,63,563H58a26.483,26.483,0,0,1-3.5-.121,2.921,2.921,0,0,1-1.781-.592,2.925,2.925,0,0,1-.594-1.781C52.005,559.479,52,558,52,556v-7h0Z" transform="translate(-50 -540)"/>
</svg>
