<svg xmlns="http://www.w3.org/2000/svg" width="22.32" height="22" viewBox="0 0 22.32 22">
  <defs>
    <style>
      .cls-1 {
        fill: #809fb8;
        fill-rule: evenodd;
      }
    </style>
  </defs>
  <path id="icon" class="cls-1" d="M1675.3,119v-5a6.081,6.081,0,0,0-12.16,0v5a3.987,3.987,0,0,1-.54,2h13.24A3.987,3.987,0,0,1,1675.3,119Zm4.05,4h-20.27a1,1,0,1,1,0-2,2.016,2.016,0,0,0,2.03-2v-5a8.111,8.111,0,0,1,16.22,0v5a2.007,2.007,0,0,0,2.02,2A1,1,0,1,1,1679.35,123Zm-7.5,3.5a3.061,3.061,0,0,1-5.26,0,1,1,0,0,1,.88-1.5h3.5A1,1,0,0,1,1671.85,126.505Z" transform="translate(-1658.06 -106)"/>
</svg>
