<svg xmlns="http://www.w3.org/2000/svg" width="22.344" height="22.375" viewBox="0 0 22.344 22.375">
  <defs>
    <style>
      .cls-1 {
        fill: #809fb8;
        fill-rule: evenodd;
      }
    </style>
  </defs>
  <path id="reports" class="cls-1" d="M71.126,393.631a1.017,1.017,0,1,1,1.873.793A11.191,11.191,0,1,1,58.223,379.79a1.018,1.018,0,0,1,.814,1.867A9.164,9.164,0,1,0,71.126,393.631Zm2.757-3.566a1.018,1.018,0,0,1-1.017,1.019H62.7a1.018,1.018,0,0,1-1.017-1.019V379.878A1.018,1.018,0,0,1,62.7,378.86,11.2,11.2,0,0,1,73.883,390.065Zm-4.714-6.483a9.148,9.148,0,0,0-5.454-2.628v8.092h8.078A9.178,9.178,0,0,0,69.169,383.582Z" transform="translate(-51.531 -378.875)"/>
</svg>
