<svg xmlns="http://www.w3.org/2000/svg" width="24" height="24" viewBox="0 0 24 24">
  <defs>
    <style>
      .cls-1 {
        fill: #ffffff;
        fill-rule: evenodd;
      }
    </style>
  </defs>
  <path id="settings" class="cls-1" d="M63,880a4,4,0,1,1,4-4A4,4,0,0,1,63,880Zm0-2a2,2,0,1,0-2-2A2,2,0,0,0,63,878Zm8.91-1H72a1,1,0,1,0,0-2H71.826a2.649,2.649,0,0,1-2.425-1.606,1.006,1.006,0,0,1-.072-0.264,2.655,2.655,0,0,1,.614-2.737l0.06-.061a1,1,0,1,0-1.416-1.415l-0.068.068A2.664,2.664,0,0,1,64,867.09V867a1,1,0,1,0-2,0v0.174a2.65,2.65,0,0,1-1.606,2.425,0.975,0.975,0,0,1-.264.072,2.653,2.653,0,0,1-2.737-.614l-0.06-.06a1,1,0,1,0-1.415,1.416l0.068,0.068a2.625,2.625,0,0,1,.554,2.864,2.658,2.658,0,0,1-2.449,1.735H54a1,1,0,0,0,0,2h0.174a2.663,2.663,0,0,1,1.883,4.527l-0.06.06a1,1,0,1,0,1.416,1.416l0.068-.068a2.628,2.628,0,0,1,2.864-.554,2.659,2.659,0,0,1,1.735,2.449V885a1,1,0,1,0,2,0v-0.174a2.663,2.663,0,0,1,4.527-1.883l0.06,0.06a1,1,0,1,0,1.415-1.416l-0.068-.068A2.663,2.663,0,0,1,71.91,877Zm-2.425,1.6,0,0.01,0,0Zm1.814-5.881a0.648,0.648,0,0,0,.531.285H72a3,3,0,1,1,0,6H71.914a0.664,0.664,0,0,0-.477,1.113l0.06,0.059a3,3,0,1,1-4.244,4.245l-0.052-.052a0.663,0.663,0,0,0-1.121.465V885a3,3,0,1,1-6,0,0.7,0.7,0,0,0-.484-0.685,0.647,0.647,0,0,0-.709.122l-0.06.06a3,3,0,1,1-4.245-4.244l0.052-.052a0.664,0.664,0,0,0-.465-1.121H54a3,3,0,1,1,0-6,0.7,0.7,0,0,0,.685-0.484,0.646,0.646,0,0,0-.122-0.709l-0.059-.06a3,3,0,1,1,4.244-4.244l0.052,0.052a0.65,0.65,0,0,0,.717.13,1,1,0,0,1,.2-0.064A0.647,0.647,0,0,0,60,867.17V867a3,3,0,1,1,6,0v0.086a0.654,0.654,0,0,0,.4.6,0.647,0.647,0,0,0,.709-0.122l0.06-.06a3,3,0,1,1,4.245,4.244l-0.052.052a0.65,0.65,0,0,0-.13.717A1.023,1.023,0,0,1,71.3,872.715Z" transform="translate(-51 -864)"/>
</svg>
