<svg xmlns="http://www.w3.org/2000/svg" width="27.18" height="19.062" viewBox="0 0 27.18 19.062">
  <defs>
    <style>
      .cls-1 {
        fill: #f9b959;
        fill-rule: evenodd;
      }
    </style>
  </defs>
  <path id="Form_4" data-name="Form 4" class="cls-1" d="M1327.13,324.932a2.127,2.127,0,1,1-1.54.624A2.135,2.135,0,0,1,1327.13,324.932Zm-0.03-5.209a0.869,0.869,0,0,1,.6.249l0.37,0.368a0.847,0.847,0,0,1,0,1.2l-6.51,6.489a0.846,0.846,0,0,1-1.2,0l-0.37-.367a0.847,0.847,0,0,1,0-1.2l6.51-6.49A0.835,0.835,0,0,1,1327.1,319.723Zm-6.12-.909a2.125,2.125,0,1,1-1.52.622A2.117,2.117,0,0,1,1320.98,318.814Zm-7.73-4.334a2.812,2.812,0,0,0-2.82,2.814v2.051c0,0.889.06,0.849,0.75,1.034a3.826,3.826,0,0,1,0,7.241c-0.69.185-.75,0.146-0.75,1.036v2.049a2.812,2.812,0,0,0,2.82,2.814h21.56a2.812,2.812,0,0,0,2.82-2.814v-2.049c0-.89-0.06-0.851-0.75-1.036a3.826,3.826,0,0,1,0-7.241c0.69-.185.75-0.145,0.75-1.034v-2.051a2.812,2.812,0,0,0-2.82-2.814h-21.56Zm7.17,5.915a0.77,0.77,0,1,0,1.09,0,0.792,0.792,0,0,0-.54-0.226A0.76,0.76,0,0,0,1320.42,320.4Zm6.69,5.9a0.769,0.769,0,1,0,.53.226A0.759,0.759,0,0,0,1327.11,326.29Z" transform="translate(-1310.44 -314.469)"/>
</svg>
